<svg width="85" height="38" viewBox="0 0 85 38" fill="none" xmlns="http://www.w3.org/2000/svg">
<path d="M4.07031 25.9336H17.5469V29H0.300781V0.5625H4.07031V25.9336ZM20.3008 18.2383C20.3008 16.168 20.7044 14.306 21.5117 12.6523C22.332 10.9987 23.4648 9.72266 24.9102 8.82422C26.3685 7.92578 28.0286 7.47656 29.8906 7.47656C32.7682 7.47656 35.0924 8.47266 36.8633 10.4648C38.6471 12.457 39.5391 15.1068 39.5391 18.4141V18.668C39.5391 20.7253 39.1419 22.5742 38.3477 24.2148C37.5664 25.8424 36.4401 27.112 34.9688 28.0234C33.5104 28.9349 31.8307 29.3906 29.9297 29.3906C27.0651 29.3906 24.7409 28.3945 22.957 26.4023C21.1862 24.4102 20.3008 21.7734 20.3008 18.4922V18.2383ZM23.9336 18.668C23.9336 21.0117 24.474 22.8932 25.5547 24.3125C26.6484 25.7318 28.1068 26.4414 29.9297 26.4414C31.7656 26.4414 33.224 25.7253 34.3047 24.293C35.3854 22.8477 35.9258 20.8294 35.9258 18.2383C35.9258 15.9206 35.3724 14.0456 34.2656 12.6133C33.1719 11.168 31.7135 10.4453 29.8906 10.4453C28.1068 10.4453 26.668 11.1549 25.5742 12.5742C24.4805 13.9935 23.9336 16.0247 23.9336 18.668ZM43.2109 18.2578C43.2109 14.9635 43.9727 12.3464 45.4961 10.4062C47.0195 8.45312 49.0378 7.47656 51.5508 7.47656C54.1289 7.47656 56.1406 8.38802 57.5859 10.2109L57.7617 7.86719H61.0625V28.4922C61.0625 31.2266 60.2487 33.3815 58.6211 34.957C57.0065 36.5326 54.832 37.3203 52.0977 37.3203C50.5742 37.3203 49.0833 36.9948 47.625 36.3438C46.1667 35.6927 45.0534 34.8008 44.2852 33.668L46.1602 31.5C47.7096 33.4141 49.6042 34.3711 51.8438 34.3711C53.6016 34.3711 54.9688 33.8763 55.9453 32.8867C56.9349 31.8971 57.4297 30.5039 57.4297 28.707V26.8906C55.9844 28.5573 54.0117 29.3906 51.5117 29.3906C49.0378 29.3906 47.0326 28.3945 45.4961 26.4023C43.9727 24.4102 43.2109 21.6953 43.2109 18.2578ZM46.8438 18.668C46.8438 21.0508 47.332 22.9258 48.3086 24.293C49.2852 25.6471 50.6523 26.3242 52.4102 26.3242C54.6888 26.3242 56.362 25.2891 57.4297 23.2188V13.5703C56.3229 11.5521 54.6628 10.543 52.4492 10.543C50.6914 10.543 49.3177 11.2266 48.3281 12.5938C47.3385 13.9609 46.8438 15.9857 46.8438 18.668ZM65.5742 18.2383C65.5742 16.168 65.9779 14.306 66.7852 12.6523C67.6055 10.9987 68.7383 9.72266 70.1836 8.82422C71.6419 7.92578 73.3021 7.47656 75.1641 7.47656C78.0417 7.47656 80.3659 8.47266 82.1367 10.4648C83.9206 12.457 84.8125 15.1068 84.8125 18.4141V18.668C84.8125 20.7253 84.4154 22.5742 83.6211 24.2148C82.8398 25.8424 81.7135 27.112 80.2422 28.0234C78.7839 28.9349 77.1042 29.3906 75.2031 29.3906C72.3385 29.3906 70.0143 28.3945 68.2305 26.4023C66.4596 24.4102 65.5742 21.7734 65.5742 18.4922V18.2383ZM69.207 18.668C69.207 21.0117 69.7474 22.8932 70.8281 24.3125C71.9219 25.7318 73.3802 26.4414 75.2031 26.4414C77.0391 26.4414 78.4974 25.7253 79.5781 24.293C80.6589 22.8477 81.1992 20.8294 81.1992 18.2383C81.1992 15.9206 80.6458 14.0456 79.5391 12.6133C78.4453 11.168 76.987 10.4453 75.1641 10.4453C73.3802 10.4453 71.9414 11.1549 70.8477 12.5742C69.7539 13.9935 69.207 16.0247 69.207 18.668Z" fill="white"/>
</svg>
